<?xml version="1.0" encoding="UTF-8"?><svg id="katman_1" xmlns="http://www.w3.org/2000/svg" width="410.596" height="82.303" viewBox="0 0 410.596 82.303"><defs><style>.cls-1{fill:#c71617;}</style></defs><path class="cls-1" d="m294.332-31.159c-1.113-7.202-4.185-13.96-8.88-19.534l-14.832-17.612c-1.528-1.814-.238-4.587,2.134-4.587h2.514l-22.993-25.106H68.29l-11.916,27.83h-8.511c-5.64,0-10.213,4.572-10.213,10.213h.545c3.647,0,6.604,2.957,6.604,6.604v29.153c0,4.422-1.37,8.736-3.922,12.348L32.503.001h350.993l24.878-31.161h-114.043Zm-46.79-62.147c2.341.054,4.553,1.079,6.108,2.829l10.646,11.988h-3.5c-3.115,0-6.102-1.237-8.304-3.44l-11.529-11.529,6.579.151Zm.303,47.483v-18.079h8.086v18.079h-8.086Zm8.086,2.751v6.484h-8.086v-6.484h8.086Zm-26.615-50.385c2.828,0,5.524,1.193,7.426,3.286l10.616,11.683h-9.568c-4.68,0-8.474-3.794-8.474-8.474v-6.494Zm.397,47.634v-18.079h8.086v18.079h-8.086Zm8.086,2.751v6.484h-8.086v-6.484h8.086Zm-26.218-20.83h8.086v18.079h-8.086v-18.079Zm0,20.83h8.086v6.484h-8.086v-6.484Zm-18.131-20.83h8.086v18.079h-8.086v-18.079Zm0,20.83h8.086v6.484h-8.086v-6.484Zm-18.131-20.83h8.086v18.079h-8.086v-18.079Zm0,20.83h8.086v6.484h-8.086v-6.484Zm-18.131-20.83h8.086v18.079h-8.086v-18.079Zm0,20.83h8.086v6.484h-8.086v-6.484Zm-18.131-20.83h8.086v18.079h-8.086v-18.079Zm0,20.83h8.086v6.484h-8.086v-6.484Zm-18.131-20.83h8.086v18.079h-8.086v-18.079Zm0,20.83h8.086v6.484h-8.086v-6.484Zm-18.131-20.83h8.086v18.079h-8.086v-18.079Zm0,20.83h8.086v6.484h-8.086v-6.484Zm-18.131-20.83h8.086v18.079h-8.086v-18.079Zm0,20.83h8.086v6.484h-8.086v-6.484Zm-18.131-20.83h8.086v18.079h-8.086v-18.079Zm0,20.83h8.086v6.484h-8.086v-6.484ZM372.163-11.755H51.234l2.511-3.036c3.729-4.509,9.276-7.12,15.128-7.12h322.711l-1.341,1.628c-4.45,5.401-11.082,8.529-18.08,8.529Z"/><path class="cls-1" d="m32.503.001l-6.912,27.93c-1.495,6.04,3.076,11.879,9.298,11.879,7.685,0,13.915,6.23,13.915,13.915,0,2.489-2.018,4.507-4.507,4.507h-9.056c-10.073,0-18.848,6.868-21.268,16.646l-1.173,4.74h311.83L383.496.001H32.503Zm293.938,53.271c-2.776,9.488-11.398,16.069-21.282,16.244l-281.942,5.004,4.596-6.03c3.457-3.333,9.423-4.915,14.225-4.934l284.665-11.177-.261.893Zm7.621-13.877l-282.162-7.119c-7.668-.049-13.006-7.635-10.462-14.869l2.922-8.309h304.588c5.896,0,8.812,7.161,4.593,11.28l-19.478,19.017Z"/></svg>