<?xml version="1.0" encoding="UTF-8"?><svg id="katman_1" xmlns="http://www.w3.org/2000/svg" width="410.596" height="98" viewBox="0 0 410.596 98"><defs><style>.cls-1{fill:#c71617;}</style></defs><path class="cls-1" d="m242.551-10.215H101.887h0c6.087-7.791,14.919-12.976,24.688-14.499,110.097-17.166,158.14-16.905,179.104-13.343,15.828-6.925,23.228-14.42-.366-18.709-38.421-6.986-152.734,15.218-195.913,24.156-10.217,2.115-18.268,9.971-20.646,20.13h0c-.765,3.27-3.111,5.944-6.254,7.128L68.292,0h183.984c-4.861-1.825-8.746-5.937-9.725-10.215Z"/><path class="cls-1" d="m394.929,7.83c-42.068,17.546-74.834,16.539-84.872,15.673-.493,2.025-1.093,4.18-1.807,6.421H76.966c-5.746-8.834-6.217-15.942.243-18.918,25.513-11.756,100.106-.073,145.274,1.582,21.845.8,35.518-2.862,43.831-6.856C260.257,3.183,255.099,1.06,252.277,0H68.292c-8.938,2.507-8.597,2.468-30.044,6.276-21.447,3.808-11.234,24.937-11.234,24.937,0,0,26.929-.804,34.053-2.161,7.124-1.357.678,41.387-2.714,48.172s-24.425-6.446-25.849,20.776h350.993c9.505-41.83,7.091-43.957,19.857-72.298,12.766-28.34-8.426-17.872-8.426-17.872ZM88.31,88.142c-10.774-.388-18.914-9.904-17.628-20.609l4.068-22.357c38.598,37.022,72.914,45.103,72.914,45.103l-59.354-2.138Zm134.918,3.37c-41.17,3.442-80.941-11.01-109.286-28.699h175.361c-13.152,14.083-33.764,25.998-66.075,28.699Zm-119.969-35.897c-8.291-6.037-15.183-12.212-20.333-18.004h222.501c-2.442,5.845-5.722,12.006-10.146,18.004H103.259Z"/></svg>