<?xml version="1.0" encoding="UTF-8"?><svg id="katman_1" xmlns="http://www.w3.org/2000/svg" width="410.596" height="82.303" viewBox="0 0 410.596 82.303"><defs><style>.cls-1{fill:#c71617;}</style></defs><path class="cls-1" d="m394.929-90.17c-42.068,17.546-74.834,16.539-84.872,15.673-.493,2.025-1.093,4.18-1.807,6.421H76.966c-5.746-8.834-6.217-15.942.243-18.918,25.513-11.756,100.106-.073,145.274,1.582,21.845.8,35.518-2.862,43.831-6.856-6.057-2.549-11.215-4.672-14.037-5.732H68.292c-8.938,2.507-8.597,2.468-30.044,6.276-21.447,3.808-11.234,24.937-11.234,24.937,0,0,26.929-.804,34.053-2.161,7.124-1.357.678,41.387-2.714,48.172S33.928-27.221,32.504,0h350.993c9.505-41.83,7.091-43.957,19.857-72.298,12.766-28.34-8.426-17.872-8.426-17.872ZM88.31-9.858c-10.774-.388-18.914-9.904-17.628-20.609l4.068-22.357C113.347-15.801,147.663-7.72,147.663-7.72l-59.354-2.138Zm134.918,3.37c-41.17,3.442-80.941-11.01-109.286-28.699h175.361c-13.152,14.083-33.764,25.998-66.075,28.699Zm-119.969-35.897c-8.291-6.037-15.183-12.212-20.333-18.004h222.501c-2.442,5.845-5.722,12.006-10.146,18.004H103.259Z"/><path class="cls-1" d="m32.504,0c-.175,3.352-.555,6.56-1.083,9.611,3.65.22,7.682.46,12.022.715,3.843,6.525,8.573,17.538,3.642,26.47-9.615-2.345-19.121-1.253-25.418.082-2.969,5.253-5.38,8.159-5.38,8.159l-2.823,3.606c-6.082,7.77-2.522,19.223,6.894,22.176h0c77.686,28.157,295.677-11.627,310.23-14.691C345.142,53.064,373.993,41.83,383.497,0H32.504Zm309.451,33.387c-29.998,19.073-255.803,35.059-275.823,14.235-1.196-1.244-2.437-2.361-3.708-3.379,1.749-1.18,3.093-2.456,3.853-3.822,4.895-8.792-3.541-21.734-10.814-29.4,73.785,4.21,211.765,11.018,244.948,5.205,45.869-8.035,71.541-1.912,41.543,17.161Z"/></svg>