<?xml version="1.0" encoding="UTF-8"?><svg id="katman_1" xmlns="http://www.w3.org/2000/svg" width="410.596" height="98" viewBox="0 0 410.596 98"><defs><style>.cls-1{fill:#c71617;}</style></defs><path class="cls-1" d="m409.057,47.233l-97.362-16.34-1.362,6.808-20.085-2.521S273.199,8.595,252.277,0H68.292c-17.022,10.128-49.703,3.66-34.384,23.404l41.532,6.468-9.872,31.66-33.063,5.307-15.958,11.714-1.362,10.08,17.32-7.016v16.383h350.993c9.219-9.234,27.602-41.574,25.559-50.766Zm-31.053,3.21c4.161,0,7.534,3.373,7.534,7.534s-3.373,7.534-7.534,7.534-7.534-3.373-7.534-7.534,3.373-7.534,7.534-7.534Zm-28.931,0c4.161,0,7.534,3.373,7.534,7.534s-3.373,7.534-7.534,7.534-7.534-3.373-7.534-7.534,3.373-7.534,7.534-7.534Zm-28.931,0c4.161,0,7.534,3.373,7.534,7.534s-3.373,7.534-7.534,7.534-7.534-3.373-7.534-7.534,3.373-7.534,7.534-7.534Zm-28.931,0c4.161,0,7.534,3.373,7.534,7.534s-3.373,7.534-7.534,7.534-7.534-3.373-7.534-7.534,3.373-7.534,7.534-7.534ZM113.19,4.679c18.549.001,139.087,2.793,139.087,2.793,0,0,20.616,13.656,25.971,27.04l-187.011-7.375S38.296,4.675,113.19,4.679Zm156.626,53.298c0,4.161-3.373,7.534-7.534,7.534s-7.534-3.373-7.534-7.534,3.373-7.534,7.534-7.534,7.534,3.373,7.534,7.534Zm-28.931,0c0,4.161-3.373,7.534-7.534,7.534s-7.534-3.373-7.534-7.534,3.373-7.534,7.534-7.534,7.534,3.373,7.534,7.534Zm-28.931,0c0,4.161-3.373,7.534-7.534,7.534s-7.534-3.373-7.534-7.534,3.373-7.534,7.534-7.534,7.534,3.373,7.534,7.534Zm-28.931,0c0,4.161-3.373,7.534-7.534,7.534s-7.534-3.373-7.534-7.534,3.373-7.534,7.534-7.534,7.534,3.373,7.534,7.534Zm-28.931,0c0,4.161-3.373,7.534-7.534,7.534s-7.534-3.373-7.534-7.534,3.373-7.534,7.534-7.534,7.534,3.373,7.534,7.534Zm-28.931,0c0,4.161-3.373,7.534-7.534,7.534s-7.534-3.373-7.534-7.534,3.373-7.534,7.534-7.534,7.534,3.373,7.534,7.534Zm-28.931,0c0,4.161-3.373,7.534-7.534,7.534s-7.534-3.373-7.534-7.534,3.373-7.534,7.534-7.534,7.534,3.373,7.534,7.534Zm13.863,33.504l-72.6,2.015s63.263-31.102,350.119-22.052c0,0-338.283,6.204-277.518,20.036Z"/><path class="cls-1" d="m32.505,97.999l-14.256,16.298H4.972v11.729h12.255l-12.255,27.761s307.404,27.915,320.34,24.17c12.936-3.745,48.967-70.723,58.186-79.957H32.505Zm263.662,49.883s186.574-85.707-277.884,2.192c0,0,83.428-28.041,175.952-39.767,122.697-15.549,249.444-11.342,101.932,37.574Z"/></svg>